# Made in Blockbench 4.11.0
mtllib materials.mtl

o plane
v 0.5 0 0.5000000000000001
v 0.5 1 0.4999999999999999
v -0.5 0 0.5000000000000001
v -0.5 1 0.4999999999999999
vt 1 0
vt 1 1
vt 0 1
vt 0 0
vn 0 2.220446049250313e-16 1
usemtl m_58a250d6-1a6d-1e8b-b054-058b03d1c6c1
f 1/1/1 2/2/1 4/3/1 3/4/1
o plane
v 0.5 6.123233995736766e-17 -0.5
v 0.5 -6.123233995736766e-17 0.5
v -0.5 6.123233995736766e-17 -0.5
v -0.5 -6.123233995736766e-17 0.5
vt 1 0
vt 1 1
vt 0 1
vt 0 0
vn 0 -1 -1.2246467991473532e-16
usemtl m_58a250d6-1a6d-1e8b-b054-058b03d1c6c1
f 5/5/2 6/6/2 8/7/2 7/8/2
o plane
v 0.5 1 0.5
v 0.5 -1.1102230246251565e-16 -0.5
v -0.5 1 0.5
v -0.5 -1.1102230246251565e-16 -0.5
vt 0.046875 0.984375
vt 0.015625 0.984375
vt 0.015625 0.953125
vt 0.046875 0.953125
vn 0 0.7071067811865475 -0.7071067811865476
usemtl m_58a250d6-1a6d-1e8b-b054-058b03d1c6c1
f 9/9/3 10/10/3 12/11/3 11/12/3
o plane
v -0.4999999999999998 5.551115123125783e-17 -0.5000000000000001
v -0.4999999999999998 -1.1102230246251565e-16 0.49999999999999994
v -0.5000000000000002 1 0.5000000000000001
vt 1 0
vt 1 1
vt 0 1
vn -1 -4.440892098500626e-16 -5.438524293787563e-32
usemtl m_58a250d6-1a6d-1e8b-b054-058b03d1c6c1
f 13/13/4 14/14/4 15/15/4
o plane
v 0.5000000000000002 1 0.5000000000000001
v 0.4999999999999998 5.551115123125783e-17 -0.5000000000000001
v 0.4999999999999998 -1.1102230246251565e-16 0.49999999999999994
vt 1 1
vt 0 1
vt 0 0
vn 1 -4.440892098500626e-16 -7.903714622603226e-32
usemtl m_58a250d6-1a6d-1e8b-b054-058b03d1c6c1
f 16/16/5 18/17/5 17/18/5