# WaveFront *.obj file (generated by Cinema 4D)

mtllib ./Solana_Baseboard.mtl

v -0.804892 4.973407 25.000123
v -0.804892 -4.975329 25.000123
v 0.798827 -4.975329 25.000123
v 0.798827 -2.690390 25.000123
v 0.784648 -2.689974 25.000123
v 0.759292 -2.687143 25.000123
v 0.731979 -2.681380 25.000123
v 0.707867 -2.673635 25.000123
v 0.689296 -2.665575 25.000123
v 0.670904 -2.655284 25.000123
v 0.653227 -2.642488 25.000123
v 0.642103 -2.632433 25.000123
v 0.631694 -2.621063 25.000123
v 0.622157 -2.608298 25.000123
v 0.613653 -2.594058 25.000123
v 0.606338 -2.578263 25.000123
v 0.600373 -2.560830 25.000123
v 0.595915 -2.541681 25.000123
v 0.593125 -2.520734 25.000123
v 0.592159 -2.497909 25.000123
v 0.593147 -2.475749 25.000123
v 0.596003 -2.456640 25.000123
v 0.600563 -2.440268 25.000123
v 0.606666 -2.426318 25.000123
v 0.614149 -2.414473 25.000123
v 0.622849 -2.404419 25.000123
v 0.632603 -2.395841 25.000123
v 0.643249 -2.388422 25.000123
v 0.660534 -2.378780 25.000123
v 0.722954 -2.346707 25.000123
v 0.735104 -2.337940 25.000123
v 0.746764 -2.327654 25.000123
v 0.757771 -2.315532 25.000123
v 0.767962 -2.301260 25.000123
v 0.777175 -2.284523 25.000123
v 0.785247 -2.265005 25.000123
v 0.792014 -2.242391 25.000123
v 0.799366 -2.201975 25.000123
v 0.802163 -2.170241 25.000123
v 0.803087 -2.134308 25.000123
v 0.798692 -2.050934 25.000123
v 0.785851 -1.970880 25.000123
v 0.769544 -1.909258 25.000123
v 0.747913 -1.849814 25.000123
v 0.720994 -1.792570 25.000123
v 0.688823 -1.737551 25.000123
v 0.641277 -1.671942 25.000123
v 0.585652 -1.609891 25.000123
v 0.522017 -1.551444 25.000123
v 0.465390 -1.507313 25.000123
v 0.387516 -1.455470 25.000123
v 0.359373 -1.434982 25.000123
v 0.334228 -1.410106 25.000123
v 0.311922 -1.381287 25.000123
v 0.292300 -1.348969 25.000123
v 0.275202 -1.313598 25.000123
v 0.253947 -1.255788 25.000123
v 0.232976 -1.172169 25.000123
v 0.216837 -1.062141 25.000123
v 0.208641 -0.910275 25.000123
v 0.213814 -0.732371 25.000123
v 0.221236 -0.649653 25.000123
v 0.112358 -0.649653 25.000123
v 0.112358 2.472008 25.000123
v 0.118523 2.472180 25.000123
v 0.131577 2.473644 25.000123
v 0.145861 2.476621 25.000123
v 0.162528 2.481932 25.000123
v 0.176019 2.487850 25.000123
v 0.189911 2.495741 25.000123
v 0.203804 2.505888 25.000123
v 0.217294 2.518574 25.000123
v 0.225866 2.528581 25.000123
v 0.233961 2.539927 25.000123
v 0.241461 2.552694 25.000123
v 0.251333 2.574695 25.000123
v 0.259195 2.600366 25.000123
v 0.264645 2.629992 25.000123
v 0.266740 2.652079 25.000123
v 0.267464 2.676133 25.000123
v 0.267464 3.881876 25.000123
v 0.144041 3.881876 25.000123
v 0.140924 3.979002 25.000123
v 0.124152 4.126564 25.000123
v 0.092043 4.279683 25.000123
v 0.049996 4.411870 25.000123
v 0.006821 4.511979 25.000123
v -0.047828 4.609570 25.000123
v -0.115300 4.701630 25.000123
v -0.168070 4.758442 25.000123
v -0.227537 4.810566 25.000123
v -0.294100 4.857107 25.000123
v -0.368159 4.897173 25.000123
v -0.450114 4.929871 25.000123
v -0.540362 4.954309 25.000123
v -0.639304 4.969594 25.000123
v -0.692160 4.973525 25.000123
v -0.804892 4.973407 -24.979877
v -0.804892 -4.975329 -24.979877
v 0.798827 -4.975329 -24.979877
v 0.798827 -2.690390 -24.979877
v 0.784648 -2.689974 -24.979877
v 0.759292 -2.687143 -24.979877
v 0.731979 -2.681380 -24.979877
v 0.707867 -2.673635 -24.979877
v 0.689296 -2.665575 -24.979877
v 0.670904 -2.655284 -24.979877
v 0.653227 -2.642488 -24.979877
v 0.642103 -2.632433 -24.979877
v 0.631694 -2.621063 -24.979877
v 0.622157 -2.608298 -24.979877
v 0.613653 -2.594058 -24.979877
v 0.606338 -2.578263 -24.979877
v 0.600373 -2.560830 -24.979877
v 0.595915 -2.541681 -24.979877
v 0.593125 -2.520734 -24.979877
v 0.592159 -2.497909 -24.979877
v 0.593147 -2.475749 -24.979877
v 0.596003 -2.456640 -24.979877
v 0.600563 -2.440268 -24.979877
v 0.606666 -2.426318 -24.979877
v 0.614149 -2.414473 -24.979877
v 0.622849 -2.404419 -24.979877
v 0.632603 -2.395841 -24.979877
v 0.643249 -2.388422 -24.979877
v 0.660534 -2.378780 -24.979877
v 0.722954 -2.346707 -24.979877
v 0.735104 -2.337940 -24.979877
v 0.746764 -2.327654 -24.979877
v 0.757771 -2.315532 -24.979877
v 0.767962 -2.301260 -24.979877
v 0.777175 -2.284523 -24.979877
v 0.785247 -2.265005 -24.979877
v 0.792014 -2.242391 -24.979877
v 0.799366 -2.201975 -24.979877
v 0.802163 -2.170241 -24.979877
v 0.803087 -2.134308 -24.979877
v 0.798692 -2.050934 -24.979877
v 0.785851 -1.970880 -24.979877
v 0.769544 -1.909258 -24.979877
v 0.747913 -1.849814 -24.979877
v 0.720994 -1.792570 -24.979877
v 0.688823 -1.737551 -24.979877
v 0.641277 -1.671942 -24.979877
v 0.585652 -1.609891 -24.979877
v 0.522017 -1.551444 -24.979877
v 0.465390 -1.507313 -24.979877
v 0.387516 -1.455470 -24.979877
v 0.359373 -1.434982 -24.979877
v 0.334228 -1.410106 -24.979877
v 0.311922 -1.381287 -24.979877
v 0.292300 -1.348969 -24.979877
v 0.275202 -1.313598 -24.979877
v 0.253947 -1.255788 -24.979877
v 0.232976 -1.172169 -24.979877
v 0.216837 -1.062141 -24.979877
v 0.208641 -0.910275 -24.979877
v 0.213814 -0.732371 -24.979877
v 0.221236 -0.649653 -24.979877
v 0.112358 -0.649653 -24.979877
v 0.112358 2.472008 -24.979877
v 0.118523 2.472180 -24.979877
v 0.131577 2.473644 -24.979877
v 0.145861 2.476621 -24.979877
v 0.162528 2.481932 -24.979877
v 0.176019 2.487850 -24.979877
v 0.189911 2.495741 -24.979877
v 0.203804 2.505888 -24.979877
v 0.217294 2.518574 -24.979877
v 0.225866 2.528581 -24.979877
v 0.233961 2.539927 -24.979877
v 0.241461 2.552694 -24.979877
v 0.251333 2.574695 -24.979877
v 0.259195 2.600366 -24.979877
v 0.264645 2.629992 -24.979877
v 0.266740 2.652079 -24.979877
v 0.267464 2.676133 -24.979877
v 0.267464 3.881876 -24.979877
v 0.144041 3.881876 -24.979877
v 0.140924 3.979002 -24.979877
v 0.124152 4.126564 -24.979877
v 0.092043 4.279683 -24.979877
v 0.049996 4.411870 -24.979877
v 0.006821 4.511979 -24.979877
v -0.047828 4.609570 -24.979877
v -0.115300 4.701630 -24.979877
v -0.168070 4.758442 -24.979877
v -0.227537 4.810566 -24.979877
v -0.294100 4.857107 -24.979877
v -0.368159 4.897173 -24.979877
v -0.450114 4.929871 -24.979877
v -0.540362 4.954309 -24.979877
v -0.639304 4.969594 -24.979877
v -0.692160 4.973525 -24.979877
# 194 vertices

vn 0.113512 0.993537 0.000000
vn 0.036589 0.999330 0.000000
vn -0.001046 0.999999 0.000000
vn -1.000000 0.000000 0.000000
vn 0.000000 -1.000000 0.000000
vn 1.000000 0.000000 0.000000
vn 0.029300 0.999571 0.000000
vn 0.070193 0.997533 0.000000
vn 0.158896 0.987295 0.000000
vn 0.256467 0.966553 0.000000
vn 0.352399 0.935850 0.000000
vn 0.443792 0.896130 0.000000
vn 0.538245 0.842788 0.000000
vn 0.629394 0.777086 0.000000
vn 0.704867 0.709339 0.000000
vn 0.770297 0.637686 0.000000
vn 0.830929 0.556379 0.000000
vn 0.884195 0.467118 0.000000
vn 0.928039 0.372483 0.000000
vn 0.961276 0.275589 0.000000
vn 0.983740 0.179596 0.000000
vn 0.996186 0.087254 0.000000
vn 0.999999 -0.001139 0.000000
vn 0.995352 -0.096301 0.000000
vn 0.978029 -0.208470 0.000000
vn 0.942076 -0.335400 0.000000
vn 0.883317 -0.468776 0.000000
vn 0.803069 -0.595886 0.000000
vn 0.709947 -0.704255 0.000000
vn 0.617041 -0.786931 0.000000
vn 0.530093 -0.847940 0.000000
vn 0.472159 -0.881513 0.000000
vn 0.522546 -0.852611 0.000000
vn 0.624081 -0.781360 0.000000
vn 0.702015 -0.712162 0.000000
vn 0.778405 -0.627763 0.000000
vn 0.846384 -0.532573 0.000000
vn 0.901468 -0.432845 0.000000
vn 0.942268 -0.334860 0.000000
vn 0.972431 -0.233191 0.000000
vn 0.991046 -0.133519 0.000000
vn 0.998387 -0.056779 0.000000
vn 0.999909 0.013476 0.000000
vn 0.994403 0.105658 0.000000
vn 0.978266 0.207356 0.000000
vn 0.954194 0.299189 0.000000
vn 0.923272 0.384146 0.000000
vn 0.884979 0.465630 0.000000
vn 0.837499 0.546439 0.000000
vn 0.778220 0.627992 0.000000
vn 0.711365 0.702823 0.000000
vn 0.646104 0.763249 0.000000
vn 0.584839 0.811149 0.000000
vn 0.571484 0.820613 0.000000
vn 0.647760 0.761844 0.000000
vn 0.748678 0.662934 0.000000
vn 0.824102 0.566441 0.000000
vn 0.878553 0.477644 0.000000
vn 0.920556 0.390611 0.000000
vn 0.955623 0.294591 0.000000
vn 0.980915 0.194436 0.000000
vn 0.995026 0.099612 0.000000
vn 0.999923 0.012424 0.000000
vn 0.998244 -0.059245 0.000000
vn 0.995998 -0.089374 0.000000
vn 0.000000 1.000000 0.000000
vn 0.027892 -0.999611 0.000000
vn 0.069701 -0.997568 0.000000
vn 0.157904 -0.987454 0.000000
vn 0.254180 -0.967157 0.000000
vn 0.353156 -0.935564 0.000000
vn 0.448404 -0.893831 0.000000
vn 0.542735 -0.839904 0.000000
vn 0.638651 -0.769497 0.000000
vn 0.723314 -0.690519 0.000000
vn 0.787525 -0.616282 0.000000
vn 0.838959 -0.544194 0.000000
vn 0.888628 -0.458628 0.000000
vn 0.936077 -0.351795 0.000000
vn 0.971444 -0.237268 0.000000
vn 0.990461 -0.137796 0.000000
vn 0.998058 -0.062293 0.000000
vn 0.999887 -0.015058 0.000000
vn 0.999485 0.032078 0.000000
vn 0.997364 0.072567 0.000000
vn 0.987237 0.159259 0.000000
vn 0.967072 0.254501 0.000000
vn 0.936750 0.350000 0.000000
vn 0.896572 0.442898 0.000000
vn 0.841104 0.540874 0.000000
vn 0.770930 0.636921 0.000000
vn 0.696838 0.717229 0.000000
vn 0.617007 0.786957 0.000000
vn 0.525282 0.850928 0.000000
vn 0.423919 0.905700 0.000000
vn 0.316499 0.948593 0.000000
vn 0.207344 0.978268 0.000000
# 97 normals

vt 0.000326 0.992410 0.000000
vt 0.000326 0.994733 0.000000
vt 0.999350 0.994733 0.000000
vt 0.999350 0.992410 0.000000
vt 0.000326 0.999674 0.000000
vt 0.999350 0.999674 0.000000
vt 0.000326 0.000650 0.000000
vt 0.000326 0.436711 0.000000
vt 0.999350 0.436711 0.000000
vt 0.999350 0.000650 0.000000
vt 0.000326 0.507003 0.000000
vt 0.999350 0.507003 0.000000
vt 0.000326 0.607154 0.000000
vt 0.999350 0.607154 0.000000
vt 0.000326 0.607775 0.000000
vt 0.999350 0.607775 0.000000
vt 0.000326 0.608894 0.000000
vt 0.999350 0.608894 0.000000
vt 0.000326 0.610117 0.000000
vt 0.999350 0.610117 0.000000
vt 0.000326 0.611227 0.000000
vt 0.999350 0.611227 0.000000
vt 0.000326 0.612114 0.000000
vt 0.999350 0.612114 0.000000
vt 0.000326 0.613038 0.000000
vt 0.999350 0.613038 0.000000
vt 0.000326 0.613995 0.000000
vt 0.999350 0.613995 0.000000
vt 0.000326 0.614652 0.000000
vt 0.999350 0.614652 0.000000
vt 0.000326 0.615328 0.000000
vt 0.999350 0.615328 0.000000
vt 0.000326 0.616026 0.000000
vt 0.999350 0.616026 0.000000
vt 0.000326 0.616753 0.000000
vt 0.999350 0.616753 0.000000
vt 0.000326 0.617516 0.000000
vt 0.999350 0.617516 0.000000
vt 0.000326 0.618324 0.000000
vt 0.999350 0.618324 0.000000
vt 0.000326 0.619185 0.000000
vt 0.999350 0.619185 0.000000
vt 0.000326 0.620111 0.000000
vt 0.999350 0.620111 0.000000
vt 0.000326 0.621113 0.000000
vt 0.999350 0.621113 0.000000
vt 0.000326 0.622085 0.000000
vt 0.999350 0.622085 0.000000
vt 0.000326 0.622932 0.000000
vt 0.999350 0.622932 0.000000
vt 0.000326 0.623677 0.000000
vt 0.999350 0.623677 0.000000
vt 0.000326 0.624344 0.000000
vt 0.999350 0.624344 0.000000
vt 0.000326 0.624958 0.000000
vt 0.999350 0.624958 0.000000
vt 0.000326 0.625541 0.000000
vt 0.999350 0.625541 0.000000
vt 0.000326 0.626110 0.000000
vt 0.999350 0.626110 0.000000
vt 0.000326 0.626679 0.000000
vt 0.999350 0.626679 0.000000
vt 0.000326 0.627547 0.000000
vt 0.999350 0.627547 0.000000
vt 0.000326 0.630623 0.000000
vt 0.999350 0.630623 0.000000
vt 0.000326 0.631279 0.000000
vt 0.999350 0.631279 0.000000
vt 0.000326 0.631961 0.000000
vt 0.999350 0.631961 0.000000
vt 0.000326 0.632679 0.000000
vt 0.999350 0.632679 0.000000
vt 0.000326 0.633447 0.000000
vt 0.999350 0.633447 0.000000
vt 0.000326 0.634285 0.000000
vt 0.999350 0.634285 0.000000
vt 0.000326 0.635210 0.000000
vt 0.999350 0.635210 0.000000
vt 0.000326 0.636245 0.000000
vt 0.999350 0.636245 0.000000
vt 0.000326 0.638046 0.000000
vt 0.999350 0.638046 0.000000
vt 0.000326 0.639442 0.000000
vt 0.999350 0.639442 0.000000
vt 0.000326 0.641017 0.000000
vt 0.999350 0.641017 0.000000
vt 0.000326 0.644677 0.000000
vt 0.999350 0.644677 0.000000
vt 0.000326 0.648230 0.000000
vt 0.999350 0.648230 0.000000
vt 0.000326 0.651024 0.000000
vt 0.999350 0.651024 0.000000
vt 0.000326 0.653797 0.000000
vt 0.999350 0.653797 0.000000
vt 0.000326 0.656570 0.000000
vt 0.999350 0.656570 0.000000
vt 0.000326 0.659363 0.000000
vt 0.999350 0.659363 0.000000
vt 0.000326 0.662914 0.000000
vt 0.999350 0.662914 0.000000
vt 0.000326 0.666567 0.000000
vt 0.999350 0.666567 0.000000
vt 0.000326 0.670354 0.000000
vt 0.999350 0.670354 0.000000
vt 0.000326 0.673501 0.000000
vt 0.999350 0.673501 0.000000
vt 0.000326 0.677601 0.000000
vt 0.999350 0.677601 0.000000
vt 0.000326 0.679127 0.000000
vt 0.999350 0.679127 0.000000
vt 0.000326 0.680678 0.000000
vt 0.999350 0.680678 0.000000
vt 0.000326 0.682275 0.000000
vt 0.999350 0.682275 0.000000
vt 0.000326 0.683932 0.000000
vt 0.999350 0.683932 0.000000
vt 0.000326 0.685654 0.000000
vt 0.999350 0.685654 0.000000
vt 0.000326 0.688354 0.000000
vt 0.999350 0.688354 0.000000
vt 0.000326 0.692132 0.000000
vt 0.999350 0.692132 0.000000
vt 0.000326 0.697006 0.000000
vt 0.999350 0.697006 0.000000
vt 0.000326 0.703672 0.000000
vt 0.999350 0.703672 0.000000
vt 0.000326 0.711473 0.000000
vt 0.999350 0.711473 0.000000
vt 0.000326 0.715114 0.000000
vt 0.999350 0.715114 0.000000
vt 0.000326 0.719886 0.000000
vt 0.999350 0.719886 0.000000
vt 0.000326 0.856711 0.000000
vt 0.999350 0.856711 0.000000
vt 0.000326 0.856981 0.000000
vt 0.999350 0.856981 0.000000
vt 0.000326 0.857557 0.000000
vt 0.999350 0.857557 0.000000
vt 0.000326 0.858196 0.000000
vt 0.999350 0.858196 0.000000
vt 0.000326 0.858963 0.000000
vt 0.999350 0.858963 0.000000
vt 0.000326 0.859609 0.000000
vt 0.999350 0.859609 0.000000
vt 0.000326 0.860309 0.000000
vt 0.999350 0.860309 0.000000
vt 0.000326 0.861063 0.000000
vt 0.999350 0.861063 0.000000
vt 0.000326 0.861875 0.000000
vt 0.999350 0.861875 0.000000
vt 0.000326 0.862452 0.000000
vt 0.999350 0.862452 0.000000
vt 0.000326 0.863063 0.000000
vt 0.999350 0.863063 0.000000
vt 0.000326 0.863712 0.000000
vt 0.999350 0.863712 0.000000
vt 0.000326 0.864769 0.000000
vt 0.999350 0.864769 0.000000
vt 0.000326 0.865946 0.000000
vt 0.999350 0.865946 0.000000
vt 0.000326 0.867266 0.000000
vt 0.999350 0.867266 0.000000
vt 0.000326 0.868239 0.000000
vt 0.999350 0.868239 0.000000
vt 0.000326 0.869293 0.000000
vt 0.999350 0.869293 0.000000
vt 0.000326 0.922142 0.000000
vt 0.999350 0.922142 0.000000
vt 0.000326 0.927552 0.000000
vt 0.999350 0.927552 0.000000
vt 0.000326 0.931811 0.000000
vt 0.999350 0.931811 0.000000
vt 0.000326 0.938320 0.000000
vt 0.999350 0.938320 0.000000
vt 0.000326 0.945178 0.000000
vt 0.999350 0.945178 0.000000
vt 0.000326 0.951258 0.000000
vt 0.999350 0.951258 0.000000
vt 0.000326 0.956036 0.000000
vt 0.999350 0.956036 0.000000
vt 0.000326 0.960939 0.000000
vt 0.999350 0.960939 0.000000
vt 0.000326 0.965941 0.000000
vt 0.999350 0.965941 0.000000
vt 0.000326 0.969340 0.000000
vt 0.999350 0.969340 0.000000
vt 0.000326 0.972806 0.000000
vt 0.999350 0.972806 0.000000
vt 0.000326 0.976366 0.000000
vt 0.999350 0.976366 0.000000
vt 0.000326 0.980056 0.000000
vt 0.999350 0.980056 0.000000
vt 0.000326 0.983924 0.000000
vt 0.999350 0.983924 0.000000
vt 0.000326 0.988022 0.000000
vt 0.999350 0.988022 0.000000
# 196 texture coordinates

o Solana_Baseboard
usemtl default
f 193/4/1 194/3/2 97/2/2 96/1/1
f 194/3/2 98/6/3 1/5/3 97/2/2
f 98/10/4 99/9/4 2/8/4 1/7/4
f 99/9/5 100/12/5 3/11/5 2/8/5
f 100/12/6 101/14/6 4/13/6 3/11/6
f 101/14/7 102/16/8 5/15/8 4/13/7
f 102/16/8 103/18/9 6/17/9 5/15/8
f 103/18/9 104/20/10 7/19/10 6/17/9
f 104/20/10 105/22/11 8/21/11 7/19/10
f 105/22/11 106/24/12 9/23/12 8/21/11
f 106/24/12 107/26/13 10/25/13 9/23/12
f 107/26/13 108/28/14 11/27/14 10/25/13
f 108/28/14 109/30/15 12/29/15 11/27/14
f 109/30/15 110/32/16 13/31/16 12/29/15
f 110/32/16 111/34/17 14/33/17 13/31/16
f 111/34/17 112/36/18 15/35/18 14/33/17
f 112/36/18 113/38/19 16/37/19 15/35/18
f 113/38/19 114/40/20 17/39/20 16/37/19
f 114/40/20 115/42/21 18/41/21 17/39/20
f 115/42/21 116/44/22 19/43/22 18/41/21
f 116/44/22 117/46/23 20/45/23 19/43/22
f 117/46/23 118/48/24 21/47/24 20/45/23
f 118/48/24 119/50/25 22/49/25 21/47/24
f 119/50/25 120/52/26 23/51/26 22/49/25
f 120/52/26 121/54/27 24/53/27 23/51/26
f 121/54/27 122/56/28 25/55/28 24/53/27
f 122/56/28 123/58/29 26/57/29 25/55/28
f 123/58/29 124/60/30 27/59/30 26/57/29
f 124/60/30 125/62/31 28/61/31 27/59/30
f 125/62/31 126/64/32 29/63/32 28/61/31
f 126/64/32 127/66/33 30/65/33 29/63/32
f 127/66/33 128/68/34 31/67/34 30/65/33
f 128/68/34 129/70/35 32/69/35 31/67/34
f 129/70/35 130/72/36 33/71/36 32/69/35
f 130/72/36 131/74/37 34/73/37 33/71/36
f 131/74/37 132/76/38 35/75/38 34/73/37
f 132/76/38 133/78/39 36/77/39 35/75/38
f 133/78/39 134/80/40 37/79/40 36/77/39
f 134/80/40 135/82/41 38/81/41 37/79/40
f 135/82/41 136/84/42 39/83/42 38/81/41
f 136/84/42 137/86/43 40/85/43 39/83/42
f 137/86/43 138/88/44 41/87/44 40/85/43
f 138/88/44 139/90/45 42/89/45 41/87/44
f 139/90/45 140/92/46 43/91/46 42/89/45
f 140/92/46 141/94/47 44/93/47 43/91/46
f 141/94/47 142/96/48 45/95/48 44/93/47
f 142/96/48 143/98/49 46/97/49 45/95/48
f 143/98/49 144/100/50 47/99/50 46/97/49
f 144/100/50 145/102/51 48/101/51 47/99/50
f 145/102/51 146/104/52 49/103/52 48/101/51
f 146/104/52 147/106/53 50/105/53 49/103/52
f 147/106/53 148/108/54 51/107/54 50/105/53
f 148/108/54 149/110/55 52/109/55 51/107/54
f 149/110/55 150/112/56 53/111/56 52/109/55
f 150/112/56 151/114/57 54/113/57 53/111/56
f 151/114/57 152/116/58 55/115/58 54/113/57
f 152/116/58 153/118/59 56/117/59 55/115/58
f 153/118/59 154/120/60 57/119/60 56/117/59
f 154/120/60 155/122/61 58/121/61 57/119/60
f 155/122/61 156/124/62 59/123/62 58/121/61
f 156/124/62 157/126/63 60/125/63 59/123/62
f 157/126/63 158/128/64 61/127/64 60/125/63
f 158/128/64 159/130/65 62/129/65 61/127/64
f 159/130/66 160/132/66 63/131/66 62/129/66
f 160/132/6 161/134/6 64/133/6 63/131/6
f 161/134/67 162/136/68 65/135/68 64/133/67
f 162/136/68 163/138/69 66/137/69 65/135/68
f 163/138/69 164/140/70 67/139/70 66/137/69
f 164/140/70 165/142/71 68/141/71 67/139/70
f 165/142/71 166/144/72 69/143/72 68/141/71
f 166/144/72 167/146/73 70/145/73 69/143/72
f 167/146/73 168/148/74 71/147/74 70/145/73
f 168/148/74 169/150/75 72/149/75 71/147/74
f 169/150/75 170/152/76 73/151/76 72/149/75
f 170/152/76 171/154/77 74/153/77 73/151/76
f 171/154/77 172/156/78 75/155/78 74/153/77
f 172/156/78 173/158/79 76/157/79 75/155/78
f 173/158/79 174/160/80 77/159/80 76/157/79
f 174/160/80 175/162/81 78/161/81 77/159/80
f 175/162/81 176/164/82 79/163/82 78/161/81
f 176/164/82 177/166/83 80/165/83 79/163/82
f 177/166/83 178/168/6 81/167/6 80/165/83
f 178/168/66 179/170/66 82/169/66 81/167/66
f 179/170/84 180/172/85 83/171/85 82/169/84
f 180/172/85 181/174/86 84/173/86 83/171/85
f 181/174/86 182/176/87 85/175/87 84/173/86
f 182/176/87 183/178/88 86/177/88 85/175/87
f 183/178/88 184/180/89 87/179/89 86/177/88
f 184/180/89 185/182/90 88/181/90 87/179/89
f 185/182/90 186/184/91 89/183/91 88/181/90
f 186/184/91 187/186/92 90/185/92 89/183/91
f 187/186/92 188/188/93 91/187/93 90/185/92
f 188/188/93 189/190/94 92/189/94 91/187/93
f 189/190/94 190/192/95 93/191/95 92/189/94
f 190/192/95 191/194/96 94/193/96 93/191/95
f 191/194/96 192/196/97 95/195/97 94/193/96
f 192/196/97 193/4/1 96/1/1 95/195/97

